<mxfile host="Electron" modified="2023-12-16T14:24:45.906Z" agent="Mozilla/5.0 (Windows NT 10.0; Win64; x64) AppleWebKit/537.36 (KHTML, like Gecko) draw.io/22.1.2 Chrome/114.0.5735.289 Electron/25.9.4 Safari/537.36" etag="jcjMBoy5aZoRG1dcuxNX" version="22.1.2" type="device">
  <diagram name="Page-1" id="UbvlAIvbB7dHxH_FbRqz">
    <mxGraphModel dx="740" dy="439" grid="1" gridSize="10" guides="1" tooltips="1" connect="1" arrows="1" fold="1" page="1" pageScale="1" pageWidth="850" pageHeight="1100" math="0" shadow="0">
      <root>
        <mxCell id="0" />
        <mxCell id="1" parent="0" />
        <mxCell id="SmsTUNiA5KRN1uxS83eV-2" value="" style="rounded=0;whiteSpace=wrap;html=1;fillColor=#f5f5f5;fontColor=#333333;strokeColor=#0D0D0D;fontFamily=Computer Modern;shadow=1;" vertex="1" parent="1">
          <mxGeometry x="260" y="160" width="120" height="240" as="geometry" />
        </mxCell>
        <mxCell id="SmsTUNiA5KRN1uxS83eV-3" value="0x00000000" style="text;html=1;strokeColor=none;fillColor=none;align=center;verticalAlign=middle;whiteSpace=wrap;rounded=0;fontFamily=Courier New;" vertex="1" parent="1">
          <mxGeometry x="184" y="380" width="70" height="30" as="geometry" />
        </mxCell>
        <mxCell id="SmsTUNiA5KRN1uxS83eV-4" value="0xFFFFFFFF" style="text;html=1;strokeColor=none;fillColor=none;align=center;verticalAlign=middle;whiteSpace=wrap;rounded=0;fontFamily=Courier New;" vertex="1" parent="1">
          <mxGeometry x="184" y="150" width="70" height="30" as="geometry" />
        </mxCell>
        <mxCell id="SmsTUNiA5KRN1uxS83eV-5" value="Interrupt Vector Table" style="rounded=0;whiteSpace=wrap;html=1;fontFamily=Computer Modern;" vertex="1" parent="1">
          <mxGeometry x="260" y="370" width="120" height="30" as="geometry" />
        </mxCell>
        <mxCell id="SmsTUNiA5KRN1uxS83eV-33" value="" style="rounded=0;whiteSpace=wrap;html=1;fillColor=#f5f5f5;fontColor=#333333;strokeColor=#0D0D0D;fontFamily=Computer Modern;shadow=1;" vertex="1" parent="1">
          <mxGeometry x="468" y="160" width="120" height="240" as="geometry" />
        </mxCell>
        <mxCell id="SmsTUNiA5KRN1uxS83eV-34" value="Interrupt Vector Table" style="rounded=0;whiteSpace=wrap;html=1;fontFamily=Computer Modern;" vertex="1" parent="1">
          <mxGeometry x="468" y="190" width="120" height="30" as="geometry" />
        </mxCell>
        <mxCell id="SmsTUNiA5KRN1uxS83eV-35" value="0xFFFF0000" style="text;html=1;strokeColor=none;fillColor=none;align=center;verticalAlign=middle;whiteSpace=wrap;rounded=0;fontFamily=Courier New;" vertex="1" parent="1">
          <mxGeometry x="390" y="206" width="70" height="30" as="geometry" />
        </mxCell>
        <mxCell id="SmsTUNiA5KRN1uxS83eV-36" value="0x00000000" style="text;html=1;strokeColor=none;fillColor=none;align=center;verticalAlign=middle;whiteSpace=wrap;rounded=0;fontFamily=Courier New;" vertex="1" parent="1">
          <mxGeometry x="390" y="380" width="70" height="30" as="geometry" />
        </mxCell>
      </root>
    </mxGraphModel>
  </diagram>
</mxfile>
